<svg width="1144" height="1208" xmlns="http://www.w3.org/2000/svg" xmlns:xlink="http://www.w3.org/1999/xlink" xml:space="preserve" overflow="hidden"><defs><clipPath id="clip0"><rect x="2367" y="1046" width="1144" height="1208"/></clipPath></defs><g clip-path="url(#clip0)" transform="translate(-2367 -1046)"><path d="M2576 1613C2576 1402.58 2749.04 1232 2962.5 1232 3175.96 1232 3349 1402.58 3349 1613 3349 1823.42 3175.96 1994 2962.5 1994 2749.04 1994 2576 1823.42 2576 1613Z" stroke="#257D5E" stroke-width="27.5" stroke-miterlimit="8" fill="#D6E9F0" fill-rule="evenodd"/><path d="M579.743 530.287C579.631 529.947 579.553 529.573 579.469 529.199 579.263 528.272 579.03 527.344 578.745 526.496L573.415 510.659 563.645 524.208C546.899 547.442 524.014 558.502 497.547 556.179 470.753 553.885 446.864 565.378 436.048 577.049 426.718 587.128 417.437 606.928 418.625 623.775 418.964 628.517 423.142 632.118 427.788 631.737 432.513 631.406 436.079 627.298 435.751 622.575 434.973 611.492 441.794 596.118 448.646 588.714 456.966 579.73 475.988 571.576 496.061 573.281 523.057 575.663 546.958 566.916 565.986 547.93 569.012 565.431 569.945 586.735 563.003 605.543 555.415 625.325 540.583 644.151 524.282 654.657 511.977 662.584 492.532 670.291 469.79 661.979 461.323 658.882 454.536 655.352 448.593 650.931 481.466 648.631 501.825 636.318 510.799 613.333 512.523 608.918 510.337 603.938 505.92 602.214 501.524 600.497 496.533 602.678 494.803 607.093 490.703 617.588 481.2 631.789 446.063 633.899 443.691 634.042 441.338 634.316 438.491 634.654L437.262 634.797C435.111 635.046 432.621 635.343 430.517 635.741L420.984 637.537 423.914 646.777C425.775 652.647 430.03 658.221 436.561 663.356 444.304 669.435 452.992 674.123 463.903 678.111 472.27 681.165 480.874 682.687 489.515 682.687 504.531 682.687 519.607 678.104 533.585 669.097 553.094 656.522 570.083 635.063 579.074 611.597 589.384 583.673 585.241 552.333 579.953 530.962Z" stroke="#257D5E" stroke-width="13.7831" fill="#257D5E" transform="matrix(-1 0 0 1.05594 3511 1046)"/><path d="M882.706 364.27C859.101 385.383 839.059 394.053 823.008 389.923 811.604 386.999 805.429 378.489 798.281 368.643 791.269 358.98 784.025 348.998 771.278 344.624 752.102 338.046 728.267 347.577 699.214 373.493L629.36 303.639 531.873 326.982 249.585 609.27 480.682 840.367 762.97 558.079 786.27 460.551 711.229 385.516C739.01 360.717 755.767 357.467 765.704 360.867 773.317 363.476 778.439 370.54 784.375 378.723 792.327 389.675 801.334 402.095 818.747 406.552 840.627 412.161 866.006 402.238 894.15 377.065 897.679 373.904 897.982 368.479 894.827 364.942 891.66 361.413 886.235 361.104 882.706 364.271ZM747.406 549.363 480.681 816.074 273.863 609.256 540.589 342.546 624.022 322.573 686.75 385.301C675.905 396.134 664.395 409.053 652.182 424.076 648.628 424.051 645.062 425.395 642.353 428.104 636.969 433.489 636.969 442.218 642.353 447.601 647.737 452.986 656.466 452.986 661.85 447.601 665.314 444.137 666.52 439.294 665.522 434.843 677.876 419.624 688.93 407.276 698.794 397.351L767.335 465.892Z" stroke="#257D5E" stroke-width="13.7831" fill="#257D5E" transform="matrix(-1 0 0 1.05594 3511 1046)"/></g></svg>