<svg width="535" height="535" xmlns="http://www.w3.org/2000/svg" xmlns:xlink="http://www.w3.org/1999/xlink" xml:space="preserve" overflow="hidden"><defs><clipPath id="clip0"><rect x="729" y="148" width="535" height="535"/></clipPath></defs><g clip-path="url(#clip0)" transform="translate(-729 -148)"><path d="M271.121 247.992C271.069 247.834 271.032 247.659 270.993 247.484 270.896 247.05 270.788 246.617 270.654 246.22L268.162 238.813 263.593 245.15C255.761 256.015 245.059 261.187 232.682 260.101 220.151 259.028 208.979 264.403 203.921 269.861 199.558 274.575 195.217 283.835 195.773 291.713 195.932 293.931 197.885 295.615 200.058 295.437 202.268 295.282 203.935 293.361 203.782 291.152 203.418 285.969 206.608 278.779 209.812 275.317 213.703 271.115 222.599 267.302 231.987 268.099 244.612 269.213 255.789 265.122 264.688 256.244 266.103 264.428 266.539 274.391 263.293 283.186 259.744 292.438 252.807 301.242 245.184 306.155 239.43 309.862 230.336 313.467 219.701 309.579 215.741 308.131 212.567 306.48 209.788 304.413 225.161 303.337 234.682 297.579 238.879 286.83 239.685 284.765 238.663 282.436 236.597 281.63 234.541 280.827 232.207 281.847 231.398 283.911 229.481 288.82 225.036 295.461 208.604 296.448 207.495 296.514 206.395 296.643 205.064 296.8L204.489 296.867C203.483 296.984 202.318 297.123 201.334 297.309L196.876 298.149 198.247 302.47C199.117 305.215 201.107 307.822 204.161 310.223 207.782 313.066 211.845 315.259 216.947 317.123 220.86 318.552 224.884 319.263 228.925 319.263 235.948 319.263 242.998 317.121 249.535 312.908 258.658 307.027 266.604 296.992 270.808 286.018 275.63 272.959 273.692 258.303 271.219 248.308Z" stroke="#257D5E" stroke-width="0.711436" fill="#257D5E" transform="matrix(-1 0 0 1 1264 148)"/><path d="M412.804 170.353C401.765 180.227 392.392 184.282 384.886 182.35 379.553 180.983 376.665 177.003 373.322 172.399 370.043 167.88 366.655 163.211 360.694 161.166 351.726 158.09 340.579 162.547 326.992 174.667L294.325 141.999 248.734 152.915 116.72 284.929 224.795 393.004 356.809 260.99 367.705 215.38 332.611 180.289C345.604 168.692 353.44 167.172 358.087 168.762 361.647 169.982 364.043 173.286 366.819 177.113 370.537 182.234 374.75 188.043 382.893 190.127 393.125 192.75 404.994 188.109 418.156 176.337 419.806 174.859 419.948 172.322 418.472 170.668 416.991 169.017 414.454 168.873 412.804 170.354ZM349.53 256.914 224.794 381.643 128.074 284.923 252.81 160.194 291.828 150.854 321.164 180.189C316.092 185.255 310.709 191.297 304.998 198.322 303.336 198.311 301.668 198.939 300.401 200.206 297.883 202.724 297.883 206.807 300.401 209.324 302.919 211.842 307.001 211.842 309.519 209.324 311.139 207.704 311.703 205.439 311.236 203.358 317.014 196.24 322.183 190.466 326.796 185.824L358.85 217.878Z" stroke="#257D5E" stroke-width="0.711436" fill="#257D5E" transform="matrix(-1 0 0 1 1264 148)"/></g></svg>