<svg width="1143" height="1208" xmlns="http://www.w3.org/2000/svg" xmlns:xlink="http://www.w3.org/1999/xlink" xml:space="preserve" overflow="hidden"><defs><clipPath id="clip0"><rect x="490" y="195" width="1143" height="1208"/></clipPath></defs><g clip-path="url(#clip0)" transform="translate(-490 -195)"><path d="M698.5 761.5C698.5 551.08 871.542 380.5 1085 380.5 1298.46 380.5 1471.5 551.08 1471.5 761.5 1471.5 971.921 1298.46 1142.5 1085 1142.5 871.542 1142.5 698.5 971.921 698.5 761.5Z" stroke="#257D5E" stroke-width="20.625" stroke-miterlimit="8" fill="none" fill-rule="evenodd"/><path d="M579.237 529.823C579.124 529.484 579.047 529.11 578.963 528.736 578.756 527.811 578.524 526.884 578.24 526.036L572.914 510.213 563.153 523.75C546.421 546.964 523.556 558.014 497.112 555.693 470.342 553.401 446.474 564.884 435.667 576.545 426.345 586.615 417.072 606.398 418.259 623.23 418.598 627.968 422.772 631.565 427.414 631.185 432.135 630.854 435.697 626.75 435.371 622.031 434.592 610.958 441.408 595.597 448.254 588.2 456.566 579.223 475.572 571.076 495.627 572.78 522.6 575.16 546.48 566.42 565.492 547.452 568.515 564.937 569.447 586.222 562.511 605.013 554.93 624.779 540.11 643.588 523.824 654.085 511.529 662.005 492.101 669.706 469.379 661.401 460.919 658.306 454.139 654.78 448.201 650.363 481.045 648.064 501.387 635.762 510.353 612.797 512.075 608.386 509.891 603.41 505.478 601.688 501.086 599.972 496.099 602.151 494.37 606.562 490.274 617.048 480.779 631.237 445.673 633.345 443.303 633.488 440.952 633.762 438.108 634.099L436.88 634.242C434.731 634.491 432.243 634.788 430.141 635.186L420.617 636.979 423.544 646.212C425.403 652.077 429.654 657.646 436.179 662.776 443.916 668.85 452.596 673.534 463.497 677.518 471.857 680.57 480.454 682.09 489.087 682.09 504.091 682.09 519.153 677.512 533.118 668.512 552.61 655.948 569.585 634.508 578.568 611.063 588.869 583.163 584.73 551.85 579.446 530.498Z" stroke="#257D5E" stroke-width="1.51977" fill="#257D5E" transform="matrix(-1 0 0 1.05687 1633 195)"/><path d="M881.934 363.951C858.351 385.047 838.325 393.709 822.288 389.582 810.895 386.661 804.725 378.158 797.583 368.321 790.578 358.667 783.34 348.693 770.604 344.323 751.445 337.751 727.631 347.273 698.603 373.167L628.81 303.374 531.409 326.696 249.367 608.737 480.262 839.633 762.304 557.591 785.583 460.149 710.607 385.179C738.365 360.402 755.107 357.154 765.035 360.551 772.641 363.158 777.759 370.217 783.689 378.392 791.634 389.335 800.634 401.743 818.031 406.197 839.893 411.801 865.25 401.886 893.369 376.736 896.895 373.577 897.198 368.157 894.045 364.623 890.881 361.097 885.461 360.788 881.934 363.953ZM746.753 548.883 480.261 815.361 273.624 608.724 540.116 342.247 623.476 322.291 686.15 384.965C675.314 395.788 663.814 408.696 651.612 423.705 648.061 423.681 644.499 425.023 641.792 427.73 636.413 433.11 636.413 441.832 641.792 447.21 647.171 452.59 655.892 452.59 661.271 447.21 664.732 443.749 665.938 438.911 664.94 434.463 677.284 419.258 688.328 406.92 698.183 397.004L766.664 465.485Z" stroke="#257D5E" stroke-width="1.51977" fill="#257D5E" transform="matrix(-1 0 0 1.05687 1633 195)"/></g></svg>