<svg width="829" height="788" xmlns="http://www.w3.org/2000/svg" xmlns:xlink="http://www.w3.org/1999/xlink" xml:space="preserve" overflow="hidden"><defs><clipPath id="clip0"><rect x="221" y="1324" width="829" height="788"/></clipPath><clipPath id="clip1"><rect x="445" y="1507" width="606" height="605"/></clipPath><clipPath id="clip2"><rect x="445" y="1507" width="606" height="605"/></clipPath><clipPath id="clip3"><rect x="445" y="1507" width="606" height="605"/></clipPath></defs><g clip-path="url(#clip0)" transform="translate(-221 -1324)"><path d="M271.5 1702C271.5 1505.66 433.797 1346.5 634 1346.5 834.203 1346.5 996.5 1505.66 996.5 1702 996.5 1898.34 834.203 2057.5 634 2057.5 433.797 2057.5 271.5 1898.34 271.5 1702Z" stroke="#257D5E" stroke-width="20.625" stroke-miterlimit="8" fill="#0E2A36" fill-rule="evenodd"/><g clip-path="url(#clip1)"><g clip-path="url(#clip2)"><g clip-path="url(#clip3)"><path d="M306.595 280.44C306.535 280.261 306.494 280.063 306.45 279.865 306.341 279.375 306.218 278.884 306.067 278.435L303.248 270.06 298.082 277.225C289.225 289.513 277.123 295.361 263.126 294.133 248.956 292.92 236.322 298.998 230.602 305.17 225.668 310.5 220.76 320.972 221.388 329.881 221.568 332.389 223.777 334.293 226.234 334.092 228.733 333.917 230.618 331.744 230.445 329.246 230.034 323.385 233.641 315.255 237.265 311.339 241.665 306.588 251.724 302.276 262.34 303.177 276.617 304.437 289.257 299.811 299.32 289.771 300.92 299.026 301.413 310.293 297.742 320.239 293.729 330.701 285.885 340.657 277.265 346.213 270.757 350.405 260.473 354.481 248.447 350.085 243.969 348.447 240.38 346.581 237.236 344.243 254.621 343.026 265.388 336.514 270.134 324.359 271.046 322.024 269.89 319.39 267.554 318.479 265.229 317.57 262.589 318.724 261.675 321.059 259.506 326.609 254.481 334.119 235.899 335.235 234.644 335.311 233.4 335.456 231.894 335.634L231.244 335.71C230.107 335.842 228.79 335.999 227.677 336.209L222.636 337.159 224.185 342.045C225.169 345.15 227.42 348.098 230.873 350.813 234.968 354.028 239.563 356.508 245.333 358.616 249.758 360.232 254.308 361.036 258.878 361.036 266.819 361.036 274.792 358.613 282.184 353.849 292.501 347.199 301.486 335.851 306.241 323.441 311.693 308.673 309.503 292.099 306.706 280.797Z" stroke="#257D5E" stroke-width="0.804429" fill="#257D5E" transform="matrix(-1 0 0 1 1050 1507)"/><path d="M466.815 192.643C454.332 203.809 443.733 208.394 435.244 206.209 429.214 204.663 425.948 200.162 422.168 194.956 418.46 189.845 414.629 184.566 407.887 182.253 397.746 178.774 385.141 183.815 369.776 197.52L332.834 160.578 281.279 172.923 131.992 322.21 254.207 444.425 403.494 295.138 415.816 243.561 376.131 203.879C390.823 190.764 399.685 189.045 404.94 190.843 408.966 192.223 411.674 195.959 414.814 200.286 419.019 206.078 423.782 212.646 432.991 215.003 444.562 217.97 457.984 212.722 472.868 199.409 474.734 197.738 474.894 194.869 473.226 192.998 471.551 191.132 468.682 190.968 466.815 192.643ZM395.263 290.529 254.206 431.577 144.832 322.203 285.888 181.154 330.011 170.591 363.185 203.765C357.45 209.494 351.363 216.326 344.904 224.271 343.025 224.258 341.139 224.968 339.706 226.401 336.859 229.249 336.859 233.865 339.706 236.712 342.553 239.56 347.169 239.56 350.017 236.712 351.849 234.88 352.487 232.319 351.959 229.965 358.492 221.917 364.338 215.386 369.554 210.138L405.802 246.385Z" stroke="#257D5E" stroke-width="0.804429" fill="#257D5E" transform="matrix(-1 0 0 1 1050 1507)"/></g></g></g><text fill="#257D5E" font-family="Calibri,Calibri_MSFontService,sans-serif" font-weight="400" font-size="330" transform="matrix(1 0 0 1 419.499 1732)">LS</text></g></svg>